# xmcd
#
# Track frame offsets:
# 150
# 12190
# 24566
# 34514
# 50874
# 68032
# 80112
# 97491
# 115264
# 130687
# 146457
# 155825
# 171928
# 181881
# 199856
#
# Disc length: 2814 seconds
#
#
# Revision: 0
# Processed by: cddbd v1.5.2PL0 Copyright (c) Steve Scherf et al.
# Submitted via: FreeRIP 2.96 
#
DISCID=d60afc0f
DTITLE=Seim, Shirley - Red Bird 
DYEAR=2008
DGENRE=Bluegrass
TTITLE0=Cherokee Shuffle
TTITLE1=Redbird Reel
TTITLE2=Back Up and Push
TTITLE3=Blues For Dixie
TTITLE4=Angeline the Baker - Mississippi Sawyer - Liberty
TTITLE5=Gold Rush
TTITLE6=Dill Pickle Rag
TTITLE7=His Eye is on the Sparrow
TTITLE8=Big Sciota - Big Sandy River
TTITLE9=All I Ever Loved Was You
TTITLE10=Stone Soup
TTITLE11=Forked Deer - Over the Waterfall
TTITLE12=Shenandoah Breakdown
TTITLE13=Old Rugged Cross - In the Garden
TTITLE14=Drivin' Away the Blues
EXTD=Tracks 2, 11 and 15 by Shirley Seim
EXTT0=
EXTT1=
EXTT2=
EXTT3=
EXTT4=
EXTT5=
EXTT6=
EXTT7=
EXTT8=
EXTT9=
EXTT10=
EXTT11=
EXTT12=
EXTT13=
EXTT14=
PLAYORDER=
